<mxfile host="app.diagrams.net" modified="2024-02-03T02:17:40.986Z" agent="Mozilla/5.0 (Windows NT 10.0; Win64; x64) AppleWebKit/537.36 (KHTML, like Gecko) Chrome/121.0.0.0 Safari/537.36" etag="BUDVCEnpbrCWctTgYMdC" version="23.1.0" type="device">
  <diagram name="Sivu-1" id="slN8br9JwQ3f_zcWAiZG">
    <mxGraphModel dx="1434" dy="738" grid="1" gridSize="10" guides="1" tooltips="1" connect="1" arrows="1" fold="1" page="1" pageScale="1" pageWidth="827" pageHeight="1169" math="0" shadow="0">
      <root>
        <mxCell id="0" />
        <mxCell id="1" parent="0" />
        <mxCell id="HFLGTpV6vFzJjQVJ2_fK-18" style="edgeStyle=orthogonalEdgeStyle;rounded=0;orthogonalLoop=1;jettySize=auto;html=1;fillColor=#d5e8d4;strokeColor=#82b366;entryX=0;entryY=0.5;entryDx=0;entryDy=0;" parent="1" source="HFLGTpV6vFzJjQVJ2_fK-1" target="HFLGTpV6vFzJjQVJ2_fK-14" edge="1">
          <mxGeometry relative="1" as="geometry" />
        </mxCell>
        <mxCell id="j2fXruuIvxuC0uiTK79K-3" style="edgeStyle=orthogonalEdgeStyle;rounded=0;orthogonalLoop=1;jettySize=auto;html=1;entryX=0;entryY=0.5;entryDx=0;entryDy=0;fillColor=#d5e8d4;strokeColor=#82b366;" edge="1" parent="1" source="HFLGTpV6vFzJjQVJ2_fK-1" target="j2fXruuIvxuC0uiTK79K-2">
          <mxGeometry relative="1" as="geometry" />
        </mxCell>
        <mxCell id="j2fXruuIvxuC0uiTK79K-13" style="edgeStyle=orthogonalEdgeStyle;rounded=0;orthogonalLoop=1;jettySize=auto;html=1;entryX=0;entryY=0.5;entryDx=0;entryDy=0;fillColor=#d5e8d4;strokeColor=#82b366;" edge="1" parent="1" source="HFLGTpV6vFzJjQVJ2_fK-1" target="j2fXruuIvxuC0uiTK79K-12">
          <mxGeometry relative="1" as="geometry" />
        </mxCell>
        <mxCell id="HFLGTpV6vFzJjQVJ2_fK-1" value="User" style="shape=umlActor;verticalLabelPosition=bottom;verticalAlign=top;html=1;outlineConnect=0;fillColor=#d5e8d4;strokeColor=#82b366;" parent="1" vertex="1">
          <mxGeometry x="30" y="370" width="30" height="60" as="geometry" />
        </mxCell>
        <mxCell id="HFLGTpV6vFzJjQVJ2_fK-2" value="&lt;font style=&quot;font-size: 16px;&quot;&gt;Toolbox&lt;/font&gt;" style="text;html=1;strokeColor=none;fillColor=none;align=center;verticalAlign=middle;whiteSpace=wrap;rounded=0;" parent="1" vertex="1">
          <mxGeometry x="330" y="120" width="110" height="40" as="geometry" />
        </mxCell>
        <mxCell id="HFLGTpV6vFzJjQVJ2_fK-27" style="edgeStyle=orthogonalEdgeStyle;rounded=0;orthogonalLoop=1;jettySize=auto;html=1;exitX=1;exitY=0;exitDx=0;exitDy=0;" parent="1" source="HFLGTpV6vFzJjQVJ2_fK-3" target="HFLGTpV6vFzJjQVJ2_fK-26" edge="1">
          <mxGeometry relative="1" as="geometry" />
        </mxCell>
        <mxCell id="HFLGTpV6vFzJjQVJ2_fK-30" style="edgeStyle=orthogonalEdgeStyle;rounded=0;orthogonalLoop=1;jettySize=auto;html=1;entryX=0;entryY=0.5;entryDx=0;entryDy=0;exitX=1;exitY=0;exitDx=0;exitDy=0;" parent="1" source="HFLGTpV6vFzJjQVJ2_fK-3" target="HFLGTpV6vFzJjQVJ2_fK-29" edge="1">
          <mxGeometry relative="1" as="geometry" />
        </mxCell>
        <mxCell id="j2fXruuIvxuC0uiTK79K-11" style="edgeStyle=orthogonalEdgeStyle;rounded=0;orthogonalLoop=1;jettySize=auto;html=1;entryX=0;entryY=0.5;entryDx=0;entryDy=0;exitX=1;exitY=0;exitDx=0;exitDy=0;" edge="1" parent="1" source="HFLGTpV6vFzJjQVJ2_fK-3" target="j2fXruuIvxuC0uiTK79K-9">
          <mxGeometry relative="1" as="geometry" />
        </mxCell>
        <mxCell id="j2fXruuIvxuC0uiTK79K-17" style="edgeStyle=orthogonalEdgeStyle;rounded=0;orthogonalLoop=1;jettySize=auto;html=1;entryX=0;entryY=0.5;entryDx=0;entryDy=0;exitX=1;exitY=0;exitDx=0;exitDy=0;" edge="1" parent="1" source="HFLGTpV6vFzJjQVJ2_fK-3" target="j2fXruuIvxuC0uiTK79K-16">
          <mxGeometry relative="1" as="geometry" />
        </mxCell>
        <mxCell id="HFLGTpV6vFzJjQVJ2_fK-3" value="Math tools" style="ellipse;whiteSpace=wrap;html=1;" parent="1" vertex="1">
          <mxGeometry x="170" y="220" width="140" height="70" as="geometry" />
        </mxCell>
        <mxCell id="HFLGTpV6vFzJjQVJ2_fK-19" style="edgeStyle=orthogonalEdgeStyle;rounded=0;orthogonalLoop=1;jettySize=auto;html=1;entryX=1;entryY=0.5;entryDx=0;entryDy=0;fillColor=#dae8fc;strokeColor=#6c8ebf;" parent="1" source="HFLGTpV6vFzJjQVJ2_fK-8" target="HFLGTpV6vFzJjQVJ2_fK-14" edge="1">
          <mxGeometry relative="1" as="geometry">
            <mxPoint x="251" y="310" as="targetPoint" />
          </mxGeometry>
        </mxCell>
        <mxCell id="HFLGTpV6vFzJjQVJ2_fK-39" style="edgeStyle=orthogonalEdgeStyle;rounded=0;orthogonalLoop=1;jettySize=auto;html=1;entryX=1;entryY=0.5;entryDx=0;entryDy=0;fillColor=#dae8fc;strokeColor=#6c8ebf;" parent="1" source="HFLGTpV6vFzJjQVJ2_fK-8" target="HFLGTpV6vFzJjQVJ2_fK-3" edge="1">
          <mxGeometry relative="1" as="geometry" />
        </mxCell>
        <mxCell id="j2fXruuIvxuC0uiTK79K-4" style="edgeStyle=orthogonalEdgeStyle;rounded=0;orthogonalLoop=1;jettySize=auto;html=1;fillColor=#dae8fc;strokeColor=#6c8ebf;entryX=1;entryY=0.5;entryDx=0;entryDy=0;" edge="1" parent="1" source="HFLGTpV6vFzJjQVJ2_fK-8" target="j2fXruuIvxuC0uiTK79K-2">
          <mxGeometry relative="1" as="geometry">
            <mxPoint x="289" y="425" as="targetPoint" />
          </mxGeometry>
        </mxCell>
        <mxCell id="j2fXruuIvxuC0uiTK79K-14" style="edgeStyle=orthogonalEdgeStyle;rounded=0;orthogonalLoop=1;jettySize=auto;html=1;entryX=1;entryY=0.5;entryDx=0;entryDy=0;fillColor=#dae8fc;strokeColor=#6c8ebf;" edge="1" parent="1" source="HFLGTpV6vFzJjQVJ2_fK-8" target="j2fXruuIvxuC0uiTK79K-12">
          <mxGeometry relative="1" as="geometry" />
        </mxCell>
        <mxCell id="HFLGTpV6vFzJjQVJ2_fK-8" value="System" style="shape=umlActor;verticalLabelPosition=bottom;verticalAlign=top;html=1;outlineConnect=0;" parent="1" vertex="1">
          <mxGeometry x="760" y="370" width="30" height="60" as="geometry" />
        </mxCell>
        <mxCell id="HFLGTpV6vFzJjQVJ2_fK-14" value="Settings" style="ellipse;whiteSpace=wrap;html=1;" parent="1" vertex="1">
          <mxGeometry x="170" y="710" width="140" height="70" as="geometry" />
        </mxCell>
        <mxCell id="HFLGTpV6vFzJjQVJ2_fK-15" style="edgeStyle=orthogonalEdgeStyle;rounded=0;orthogonalLoop=1;jettySize=auto;html=1;entryX=0;entryY=0.5;entryDx=0;entryDy=0;fillColor=#d5e8d4;strokeColor=#82b366;" parent="1" source="HFLGTpV6vFzJjQVJ2_fK-1" target="HFLGTpV6vFzJjQVJ2_fK-3" edge="1">
          <mxGeometry relative="1" as="geometry" />
        </mxCell>
        <mxCell id="HFLGTpV6vFzJjQVJ2_fK-24" value="calculator" style="html=1;whiteSpace=wrap;" parent="1" vertex="1">
          <mxGeometry x="550" y="260" width="110" height="50" as="geometry" />
        </mxCell>
        <mxCell id="HFLGTpV6vFzJjQVJ2_fK-25" style="edgeStyle=orthogonalEdgeStyle;rounded=0;orthogonalLoop=1;jettySize=auto;html=1;exitX=1;exitY=0;exitDx=0;exitDy=0;entryX=0.5;entryY=0;entryDx=0;entryDy=0;" parent="1" source="HFLGTpV6vFzJjQVJ2_fK-3" target="HFLGTpV6vFzJjQVJ2_fK-24" edge="1">
          <mxGeometry relative="1" as="geometry">
            <mxPoint x="605" y="290" as="targetPoint" />
          </mxGeometry>
        </mxCell>
        <mxCell id="HFLGTpV6vFzJjQVJ2_fK-26" value="special calculator" style="html=1;whiteSpace=wrap;" parent="1" vertex="1">
          <mxGeometry x="550" y="160" width="110" height="50" as="geometry" />
        </mxCell>
        <mxCell id="HFLGTpV6vFzJjQVJ2_fK-29" value="Unit conversion" style="html=1;whiteSpace=wrap;" parent="1" vertex="1">
          <mxGeometry x="370" y="280" width="110" height="50" as="geometry" />
        </mxCell>
        <mxCell id="HFLGTpV6vFzJjQVJ2_fK-31" value="" style="shape=umlFrame;whiteSpace=wrap;html=1;pointerEvents=0;" parent="1" vertex="1">
          <mxGeometry x="140" y="120" width="530" height="810" as="geometry" />
        </mxCell>
        <mxCell id="HFLGTpV6vFzJjQVJ2_fK-41" value="store settings" style="ellipse;whiteSpace=wrap;html=1;" parent="1" vertex="1">
          <mxGeometry x="355" y="790" width="140" height="70" as="geometry" />
        </mxCell>
        <mxCell id="HFLGTpV6vFzJjQVJ2_fK-42" value="&amp;lt;&amp;lt;include&amp;gt;&amp;gt;" style="endArrow=open;endSize=12;dashed=1;html=1;rounded=0;exitX=1;exitY=1;exitDx=0;exitDy=0;entryX=0;entryY=0.5;entryDx=0;entryDy=0;" parent="1" source="HFLGTpV6vFzJjQVJ2_fK-14" target="HFLGTpV6vFzJjQVJ2_fK-41" edge="1">
          <mxGeometry width="160" relative="1" as="geometry">
            <mxPoint x="370" y="410" as="sourcePoint" />
            <mxPoint x="530" y="410" as="targetPoint" />
          </mxGeometry>
        </mxCell>
        <mxCell id="j2fXruuIvxuC0uiTK79K-7" style="edgeStyle=orthogonalEdgeStyle;rounded=0;orthogonalLoop=1;jettySize=auto;html=1;entryX=0;entryY=0.5;entryDx=0;entryDy=0;exitX=1;exitY=1;exitDx=0;exitDy=0;" edge="1" parent="1" source="j2fXruuIvxuC0uiTK79K-2" target="j2fXruuIvxuC0uiTK79K-6">
          <mxGeometry relative="1" as="geometry" />
        </mxCell>
        <mxCell id="j2fXruuIvxuC0uiTK79K-2" value="Network tools" style="ellipse;whiteSpace=wrap;html=1;" vertex="1" parent="1">
          <mxGeometry x="170" y="365" width="140" height="70" as="geometry" />
        </mxCell>
        <mxCell id="j2fXruuIvxuC0uiTK79K-6" value="ping tester" style="html=1;whiteSpace=wrap;" vertex="1" parent="1">
          <mxGeometry x="370" y="435" width="110" height="50" as="geometry" />
        </mxCell>
        <mxCell id="j2fXruuIvxuC0uiTK79K-9" value="Random number generator" style="html=1;whiteSpace=wrap;" vertex="1" parent="1">
          <mxGeometry x="370" y="340" width="110" height="50" as="geometry" />
        </mxCell>
        <mxCell id="j2fXruuIvxuC0uiTK79K-18" style="edgeStyle=orthogonalEdgeStyle;rounded=0;orthogonalLoop=1;jettySize=auto;html=1;entryX=0;entryY=0.5;entryDx=0;entryDy=0;" edge="1" parent="1" source="j2fXruuIvxuC0uiTK79K-12" target="j2fXruuIvxuC0uiTK79K-15">
          <mxGeometry relative="1" as="geometry" />
        </mxCell>
        <mxCell id="j2fXruuIvxuC0uiTK79K-20" style="edgeStyle=orthogonalEdgeStyle;rounded=0;orthogonalLoop=1;jettySize=auto;html=1;" edge="1" parent="1" source="j2fXruuIvxuC0uiTK79K-12" target="j2fXruuIvxuC0uiTK79K-19">
          <mxGeometry relative="1" as="geometry" />
        </mxCell>
        <mxCell id="j2fXruuIvxuC0uiTK79K-12" value="Cheatsheets" style="ellipse;whiteSpace=wrap;html=1;" vertex="1" parent="1">
          <mxGeometry x="170" y="515" width="140" height="70" as="geometry" />
        </mxCell>
        <mxCell id="j2fXruuIvxuC0uiTK79K-15" value="ASCII table viewer" style="html=1;whiteSpace=wrap;" vertex="1" parent="1">
          <mxGeometry x="370" y="490" width="110" height="50" as="geometry" />
        </mxCell>
        <mxCell id="j2fXruuIvxuC0uiTK79K-16" value="Prime number checker" style="html=1;whiteSpace=wrap;" vertex="1" parent="1">
          <mxGeometry x="370" y="170" width="110" height="50" as="geometry" />
        </mxCell>
        <mxCell id="j2fXruuIvxuC0uiTK79K-19" value="markdown sheet" style="html=1;whiteSpace=wrap;" vertex="1" parent="1">
          <mxGeometry x="370" y="560" width="110" height="50" as="geometry" />
        </mxCell>
      </root>
    </mxGraphModel>
  </diagram>
</mxfile>
